<svg width="270" height="15" viewBox="0 0 270 15" fill="none" xmlns="http://www.w3.org/2000/svg">
<path d="M10.3857 5.988C10.3857 7.024 10.213 7.92933 9.86771 8.704C9.53171 9.46933 9.01371 10.0667 8.31371 10.496C7.61371 10.9253 6.71771 11.14 5.62571 11.14C4.54304 11.14 3.64704 10.9253 2.93771 10.496C2.23771 10.0667 1.71504 9.46467 1.36971 8.69C1.03371 7.91533 0.865711 7.01 0.865711 5.974C0.865711 4.938 1.03371 4.03733 1.36971 3.272C1.71504 2.50667 2.23771 1.914 2.93771 1.494C3.64704 1.06467 4.54771 0.85 5.63971 0.85C6.72238 0.85 7.61371 1.06467 8.31371 1.494C9.01371 1.914 9.53171 2.51133 9.86771 3.286C10.213 4.05133 10.3857 4.952 10.3857 5.988ZM3.09171 5.988C3.09171 7.03333 3.29238 7.85933 3.69371 8.466C4.09504 9.06333 4.73904 9.362 5.62571 9.362C6.53104 9.362 7.17971 9.06333 7.57171 8.466C7.96371 7.85933 8.15971 7.03333 8.15971 5.988C8.15971 4.93333 7.96371 4.10733 7.57171 3.51C7.17971 2.91267 6.53571 2.614 5.63971 2.614C4.74371 2.614 4.09504 2.91267 3.69371 3.51C3.29238 4.10733 3.09171 4.93333 3.09171 5.988ZM15.3963 11.14C14.2576 11.14 13.3756 10.8273 12.7503 10.202C12.1343 9.56733 11.8263 8.57333 11.8263 7.22C11.8263 6.28667 11.985 5.526 12.3023 4.938C12.6196 4.35 13.0583 3.916 13.6183 3.636C14.1876 3.356 14.841 3.216 15.5783 3.216C16.101 3.216 16.5536 3.26733 16.9363 3.37C17.3283 3.47267 17.669 3.594 17.9583 3.734L17.3423 5.344C17.0156 5.21333 16.7076 5.106 16.4183 5.022C16.1383 4.938 15.8583 4.896 15.5783 4.896C14.4956 4.896 13.9543 5.666 13.9543 7.206C13.9543 7.97133 14.0943 8.536 14.3743 8.9C14.6636 9.264 15.065 9.446 15.5783 9.446C16.017 9.446 16.4043 9.39 16.7403 9.278C17.0763 9.15667 17.403 8.99333 17.7203 8.788V10.566C17.403 10.7713 17.067 10.916 16.7123 11C16.367 11.0933 15.9283 11.14 15.3963 11.14ZM25.8077 4.924H23.3017V11H21.2157V4.924H18.7097V3.356H25.8077V4.924ZM30.354 3.202C31.3806 3.202 32.1646 3.426 32.706 3.874C33.2566 4.31267 33.532 4.98933 33.532 5.904V11H32.076L31.67 9.964H31.614C31.2873 10.3747 30.942 10.6733 30.578 10.86C30.214 11.0467 29.7146 11.14 29.08 11.14C28.3986 11.14 27.834 10.944 27.386 10.552C26.938 10.1507 26.714 9.53933 26.714 8.718C26.714 7.906 26.9986 7.30867 27.568 6.926C28.1373 6.534 28.9913 6.31933 30.13 6.282L31.46 6.24V5.904C31.46 5.50267 31.3526 5.20867 31.138 5.022C30.9326 4.83533 30.6433 4.742 30.27 4.742C29.8966 4.742 29.5326 4.798 29.178 4.91C28.8233 5.01267 28.4686 5.14333 28.114 5.302L27.428 3.888C27.8386 3.67333 28.2913 3.50533 28.786 3.384C29.29 3.26267 29.8126 3.202 30.354 3.202ZM30.648 7.486C29.976 7.50467 29.5093 7.626 29.248 7.85C28.9866 8.074 28.856 8.368 28.856 8.732C28.856 9.04933 28.9493 9.278 29.136 9.418C29.3226 9.54867 29.5653 9.614 29.864 9.614C30.312 9.614 30.69 9.48333 30.998 9.222C31.306 8.95133 31.46 8.57333 31.46 8.088V7.458L30.648 7.486ZM42.4432 5.358C42.4432 5.76867 42.3125 6.11867 42.0512 6.408C41.7992 6.69733 41.4212 6.884 40.9172 6.968V7.024C41.4492 7.08933 41.8739 7.27133 42.1912 7.57C42.5179 7.86867 42.6812 8.25133 42.6812 8.718C42.6812 9.15667 42.5645 9.54867 42.3312 9.894C42.1072 10.2393 41.7479 10.51 41.2532 10.706C40.7585 10.902 40.1099 11 39.3072 11H35.6672V3.356H39.3072C39.9045 3.356 40.4365 3.42133 40.9032 3.552C41.3792 3.67333 41.7525 3.87867 42.0232 4.168C42.3032 4.45733 42.4432 4.854 42.4432 5.358ZM40.3292 5.526C40.3292 5.05933 39.9605 4.826 39.2232 4.826H37.7532V6.338H38.9852C39.4239 6.338 39.7552 6.27733 39.9792 6.156C40.2125 6.02533 40.3292 5.81533 40.3292 5.526ZM40.5252 8.606C40.5252 8.30733 40.4085 8.09267 40.1752 7.962C39.9419 7.822 39.5919 7.752 39.1252 7.752H37.7532V9.558H39.1672C39.5592 9.558 39.8812 9.488 40.1332 9.348C40.3945 9.19867 40.5252 8.95133 40.5252 8.606ZM46.4879 6.38C46.4879 6.53867 46.4785 6.73467 46.4599 6.968C46.4505 7.20133 46.4365 7.43933 46.4179 7.682C46.4085 7.92467 46.3945 8.13933 46.3759 8.326C46.3572 8.51267 46.3432 8.64333 46.3339 8.718L49.8619 3.356H52.3679V11H50.3519V7.948C50.3519 7.696 50.3612 7.42067 50.3799 7.122C50.3985 6.814 50.4172 6.52933 50.4359 6.268C50.4639 5.99733 50.4825 5.792 50.4919 5.652L46.9779 11H44.4719V3.356H46.4879V6.38ZM60.8761 4.924H58.3701V11H56.2841V4.924H53.7781V3.356H60.8761V4.924ZM65.8423 6.31C67.0183 6.31 67.8863 6.49667 68.4463 6.87C69.0157 7.24333 69.3003 7.808 69.3003 8.564C69.3003 9.30133 69.039 9.894 68.5163 10.342C67.9937 10.7807 67.1303 11 65.9263 11H62.2863V3.356H64.3723V6.31H65.8423ZM67.2143 8.592C67.2143 8.032 66.743 7.752 65.8003 7.752H64.3723V9.558H65.8283C66.239 9.558 66.5703 9.48333 66.8223 9.334C67.0837 9.18467 67.2143 8.93733 67.2143 8.592ZM77.3087 3.216C77.8593 3.216 78.3727 3.29067 78.8487 3.44C79.334 3.58 79.7213 3.79933 80.0107 4.098C80.3093 4.39667 80.4587 4.77933 80.4587 5.246C80.4587 5.70333 80.3187 6.06733 80.0387 6.338C79.768 6.60867 79.3993 6.80467 78.9327 6.926V6.996C79.2593 7.07067 79.5533 7.178 79.8147 7.318C80.076 7.44867 80.2813 7.63067 80.4307 7.864C80.5893 8.088 80.6687 8.39133 80.6687 8.774C80.6687 9.194 80.5333 9.586 80.2627 9.95C80.0013 10.3047 79.5907 10.594 79.0307 10.818C78.48 11.0327 77.7707 11.14 76.9027 11.14C75.6333 11.14 74.6533 10.9813 73.9627 10.664V8.942C74.28 9.09133 74.6673 9.22667 75.1247 9.348C75.5913 9.46933 76.086 9.53 76.6087 9.53C77.178 9.53 77.6587 9.46467 78.0507 9.334C78.4427 9.20333 78.6387 8.97467 78.6387 8.648C78.6387 8.04133 77.9153 7.738 76.4687 7.738H75.6567V6.296H76.4267C77.1173 6.296 77.6493 6.24 78.0227 6.128C78.4053 6.016 78.5967 5.806 78.5967 5.498C78.5967 5.25533 78.4753 5.07333 78.2327 4.952C77.99 4.82133 77.5933 4.756 77.0427 4.756C76.6787 4.756 76.282 4.798 75.8527 4.882C75.4233 4.966 75.0173 5.08733 74.6347 5.246L74.0187 3.79C74.4573 3.622 74.938 3.48667 75.4607 3.384C75.9833 3.272 76.5993 3.216 77.3087 3.216ZM85.4243 3.202C86.451 3.202 87.235 3.426 87.7763 3.874C88.327 4.31267 88.6023 4.98933 88.6023 5.904V11H87.1463L86.7403 9.964H86.6843C86.3576 10.3747 86.0123 10.6733 85.6483 10.86C85.2843 11.0467 84.785 11.14 84.1503 11.14C83.469 11.14 82.9043 10.944 82.4563 10.552C82.0083 10.1507 81.7843 9.53933 81.7843 8.718C81.7843 7.906 82.069 7.30867 82.6383 6.926C83.2076 6.534 84.0616 6.31933 85.2003 6.282L86.5303 6.24V5.904C86.5303 5.50267 86.423 5.20867 86.2083 5.022C86.003 4.83533 85.7136 4.742 85.3403 4.742C84.967 4.742 84.603 4.798 84.2483 4.91C83.8936 5.01267 83.539 5.14333 83.1843 5.302L82.4983 3.888C82.909 3.67333 83.3616 3.50533 83.8563 3.384C84.3603 3.26267 84.883 3.202 85.4243 3.202ZM85.7183 7.486C85.0463 7.50467 84.5796 7.626 84.3183 7.85C84.057 8.074 83.9263 8.368 83.9263 8.732C83.9263 9.04933 84.0196 9.278 84.2063 9.418C84.393 9.54867 84.6356 9.614 84.9343 9.614C85.3823 9.614 85.7603 9.48333 86.0683 9.222C86.3763 8.95133 86.5303 8.57333 86.5303 8.088V7.458L85.7183 7.486ZM91.8995 11H89.6455L91.7035 7.976C91.3115 7.81733 90.9615 7.56067 90.6535 7.206C90.3548 6.842 90.2055 6.34733 90.2055 5.722C90.2055 4.95667 90.4948 4.37333 91.0735 3.972C91.6522 3.56133 92.3942 3.356 93.2995 3.356H96.8555V11H94.7695V8.158H93.6215L91.8995 11ZM92.2495 5.736C92.2495 6.05333 92.3755 6.30533 92.6275 6.492C92.8795 6.66933 93.2062 6.758 93.6075 6.758H94.7695V4.826H93.3415C92.9682 4.826 92.6928 4.91933 92.5155 5.106C92.3382 5.28333 92.2495 5.49333 92.2495 5.736ZM105.812 5.358C105.812 5.76867 105.682 6.11867 105.42 6.408C105.168 6.69733 104.79 6.884 104.286 6.968V7.024C104.818 7.08933 105.243 7.27133 105.56 7.57C105.887 7.86867 106.05 8.25133 106.05 8.718C106.05 9.15667 105.934 9.54867 105.7 9.894C105.476 10.2393 105.117 10.51 104.622 10.706C104.128 10.902 103.479 11 102.676 11H99.0363V3.356H102.676C103.274 3.356 103.806 3.42133 104.272 3.552C104.748 3.67333 105.122 3.87867 105.392 4.168C105.672 4.45733 105.812 4.854 105.812 5.358ZM103.698 5.526C103.698 5.05933 103.33 4.826 102.592 4.826H101.122V6.338H102.354C102.793 6.338 103.124 6.27733 103.348 6.156C103.582 6.02533 103.698 5.81533 103.698 5.526ZM103.894 8.606C103.894 8.30733 103.778 8.09267 103.544 7.962C103.311 7.822 102.961 7.752 102.494 7.752H101.122V9.558H102.536C102.928 9.558 103.25 9.488 103.502 9.348C103.764 9.19867 103.894 8.95133 103.894 8.606ZM112.853 3.356H115.149L112.125 7.024L115.415 11H113.049L109.927 7.122V11H107.841V3.356H109.927V7.066L112.853 3.356ZM115.417 3.356H117.699L119.141 7.654C119.216 7.85933 119.272 8.074 119.309 8.298C119.346 8.51267 119.374 8.74133 119.393 8.984H119.435C119.463 8.74133 119.5 8.51267 119.547 8.298C119.603 8.074 119.664 7.85933 119.729 7.654L121.143 3.356H123.383L120.149 11.98C119.86 12.7733 119.435 13.366 118.875 13.758C118.324 14.1593 117.685 14.36 116.957 14.36C116.724 14.36 116.518 14.346 116.341 14.318C116.173 14.2993 116.024 14.276 115.893 14.248V12.596C115.996 12.6147 116.117 12.6333 116.257 12.652C116.406 12.6707 116.56 12.68 116.719 12.68C117.158 12.68 117.503 12.5447 117.755 12.274C118.016 12.0127 118.208 11.6953 118.329 11.322L118.455 10.944L115.417 3.356ZM266.864 8.06C267.051 7.56533 267.28 7.14067 267.55 6.786H260.046V5.638H267.55C267.289 5.28333 267.065 4.85867 266.878 4.364H267.942C268.521 5.04533 269.156 5.56333 269.846 5.918V6.52C269.156 6.856 268.521 7.36933 267.942 8.06H266.864Z" fill="#2F3A4F"/>
</svg>
